<svg xmlns="http://www.w3.org/2000/svg" viewBox="0 0 96.49 96.49"><defs><style>.cls-1{fill:none;stroke-width:7px;}.cls-1,.cls-2{stroke:#fff;stroke-miterlimit:10;}.cls-2{fill:#fff;stroke-width:5px;}</style></defs><title>1Asset 1</title><g id="Layer_2" data-name="Layer 2"><g id="Layer_1-2" data-name="Layer 1"><rect class="cls-1" x="3.5" y="3.5" width="89.49" height="89.49"/><path class="cls-2" d="M48.52,38.34A18,18,0,0,0,68.2,58.47,18,18,0,0,1,51.88,74.12v.05A35.87,35.87,0,0,0,84.36,42.49h0a18,18,0,0,0-35.81-4.32Z"/><path class="cls-2" d="M37.83,48.82A12.66,12.66,0,0,1,24,62.95a12.66,12.66,0,0,0,11.46,11v0a25.18,25.18,0,0,1-22.8-22.24h0a12.66,12.66,0,0,1,25.14-3Z"/></g></g></svg>